<svg width="44" height="44" viewBox="0 0 44 44" fill="none" xmlns="http://www.w3.org/2000/svg">
<circle cx="22" cy="22" r="21.5" stroke="white" stroke-opacity="0.3"/>
<path d="M15.6743 21.453C19.6113 19.6654 22.2366 18.487 23.5502 17.9176C27.3008 16.2919 28.0801 16.0095 28.588 16.0001C28.6998 15.9981 28.9496 16.027 29.1114 16.1638C29.248 16.2794 29.2856 16.4354 29.3036 16.545C29.3216 16.6545 29.344 16.904 29.3262 17.099C29.1229 19.3244 28.2435 24.725 27.7961 27.2175C27.6068 28.2722 27.234 28.6258 26.8731 28.6604C26.0889 28.7356 25.4933 28.1203 24.7337 27.6014C23.5451 26.7894 22.8736 26.2839 21.7198 25.4916C20.3864 24.5759 21.2508 24.0726 22.0107 23.2501C22.2095 23.0349 25.6651 19.7594 25.732 19.4623C25.7403 19.4251 25.7481 19.2866 25.6691 19.2135C25.5901 19.1403 25.4736 19.1653 25.3895 19.1852C25.2703 19.2134 23.3714 20.5214 19.6929 23.109C19.1539 23.4947 18.6657 23.6826 18.2283 23.6728C17.7461 23.6619 16.8186 23.3887 16.129 23.1551C15.2832 22.8686 14.611 22.7171 14.6696 22.2305C14.7001 21.9771 15.035 21.7179 15.6743 21.453Z" fill="#F4F4F5"/>
</svg>
