<svg width="36" height="44" viewBox="0 0 36 44" fill="none" xmlns="http://www.w3.org/2000/svg">
<path d="M28.6358 28.7058C28.0997 28.8641 27.3125 28.8819 26.4686 28.7595C25.5629 28.6282 24.639 28.3513 23.7309 27.9433C25.3503 27.7077 26.6065 27.7803 27.6809 28.161C27.9355 28.2512 28.3536 28.4923 28.6358 28.7058ZM19.6011 27.2205C19.5352 27.2384 19.4703 27.2554 19.4057 27.2733C18.97 27.3919 18.5461 27.5076 18.1376 27.6105L17.5867 27.7503C16.4785 28.0306 15.3455 28.3171 14.2265 28.6582C14.6518 27.6327 15.0469 26.5958 15.4338 25.582C15.7202 24.8316 16.0127 24.065 16.3152 23.3083C16.4686 23.5618 16.6288 23.8153 16.7955 24.0695C17.5547 25.2259 18.509 26.295 19.6011 27.2205ZM16.7824 15.6559C16.8542 16.9213 16.5812 18.1387 16.1807 19.3065C15.6873 17.8625 15.4574 16.2678 16.0742 14.9804C16.2324 14.6503 16.3619 14.4739 16.446 14.3818C16.5758 14.5823 16.7465 15.0306 16.7824 15.6559ZM10.9972 31.6859C10.72 32.1818 10.4371 32.646 10.1471 33.0844C9.44725 34.139 8.30271 35.2683 7.71474 35.2683C7.65688 35.2683 7.58687 35.259 7.48455 35.1509C7.4187 35.0819 7.40815 35.0324 7.41134 34.9648C7.43116 34.5771 7.94493 33.8865 8.68919 33.2462C9.36472 32.6653 10.1283 32.1488 10.9972 31.6859ZM30.508 28.7607C30.4182 27.4691 28.2439 26.6405 28.2225 26.6328C27.382 26.3348 26.4688 26.19 25.4311 26.19C24.3202 26.19 23.1225 26.3507 21.5844 26.7101C20.2158 25.7399 19.0335 24.5253 18.1502 23.1806C17.7601 22.5865 17.4095 21.9935 17.1038 21.4143C17.85 19.6299 18.522 17.7114 18.3999 15.5627C18.3015 13.8398 17.5245 12.6825 16.468 12.6825C15.7432 12.6825 15.1192 13.2193 14.6117 14.2794C13.7065 16.1686 13.9445 18.5858 15.3186 21.4702C14.8237 22.6326 14.3639 23.8377 13.9188 25.0042C13.3651 26.4548 12.7945 27.9513 12.1515 29.375C10.3481 30.0885 8.86652 30.9539 7.63181 32.0163C6.82296 32.711 5.84784 33.7731 5.79218 34.8818C5.76501 35.4039 5.94405 35.8828 6.30787 36.2665C6.6944 36.6738 7.18001 36.8883 7.71396 36.8889C9.47747 36.8889 11.1748 34.466 11.4967 33.98C12.1448 33.0032 12.7513 31.9136 13.3456 30.6569C14.8425 30.1159 16.4377 29.7121 17.9839 29.3218L18.5376 29.1811C18.9539 29.0753 19.3865 28.9583 19.8302 28.8368C20.2998 28.7099 20.7829 28.5782 21.274 28.4532C22.8616 29.4628 24.5689 30.1214 26.234 30.3631C27.6365 30.5671 28.882 30.4488 29.7252 30.0092C30.4838 29.6141 30.5256 29.0044 30.508 28.7607ZM33.9234 39.8671C33.9234 42.2325 31.8386 42.3784 31.418 42.3831H4.51974C2.16285 42.3831 2.02093 40.284 2.01643 39.8671L2.01611 4.13206C2.01611 1.76429 4.10478 1.62074 4.51942 1.61599H22.6897L22.6994 1.62558V8.71636C22.6994 10.1394 23.5597 12.8336 26.8178 12.8336H33.8627L33.9232 12.894L33.9234 39.8671ZM32.2533 11.2174H26.819C24.4628 11.2174 24.3202 9.12966 24.317 8.71659V3.24838L32.2533 11.2174ZM35.5396 39.8671V12.2273L24.317 0.958124V0.905693H24.2633L23.362 0H4.51979C3.09488 0 0.400391 0.86387 0.400391 4.13282V39.8679C0.400391 41.297 1.26164 44 4.51979 44H31.4205C32.8451 43.9997 35.5396 43.1357 35.5396 39.8671Z" fill="#9E5FC4"/>
</svg>
