<svg width="44" height="44" viewBox="0 0 44 44" fill="none" xmlns="http://www.w3.org/2000/svg">
<circle cx="22" cy="22" r="21.5" stroke="white" stroke-opacity="0.3"/>
<path fill-rule="evenodd" clip-rule="evenodd" d="M29.8695 17.461C29.9842 17.0512 29.8695 16.75 29.3236 16.75H27.5184C27.0594 16.75 26.848 17.0102 26.7332 17.2971C26.7332 17.2971 25.8152 19.6946 24.5147 21.2519C24.094 21.7027 23.9028 21.846 23.6733 21.846C23.5586 21.846 23.3925 21.7027 23.3925 21.2929V17.461C23.3925 16.9691 23.2593 16.75 22.8767 16.75H20.0401C19.7534 16.75 19.5809 16.9782 19.5809 17.1946C19.5809 17.6609 20.231 17.7684 20.298 19.0798V21.9282C20.298 22.5526 20.1928 22.6659 19.9633 22.6659C19.3514 22.6659 17.8629 20.2576 16.98 17.502C16.8069 16.9664 16.6334 16.75 16.1721 16.75H14.3669C13.8512 16.75 13.748 17.0102 13.748 17.2971C13.748 17.8094 14.3601 20.3504 16.5975 23.7109C18.0893 26.0057 20.1907 27.25 22.1031 27.25C23.2507 27.25 23.3925 26.9737 23.3925 26.4977V24.7632C23.3925 24.2105 23.5012 24.1003 23.8644 24.1003C24.1323 24.1003 24.5912 24.2437 25.6623 25.3502C26.8861 26.6614 27.0878 27.25 27.7763 27.25H29.5814C30.0972 27.25 30.355 26.9737 30.2063 26.4284C30.0435 25.8849 29.4592 25.0965 28.6838 24.1618C28.2631 23.6289 27.6319 23.0551 27.4408 22.7683C27.173 22.3994 27.2495 22.2356 27.4408 21.9078C27.4408 21.9078 29.64 18.5882 29.8695 17.4611V17.461Z" fill="#F4F4F5"/>
</svg>
