<svg width="44" height="44" viewBox="0 0 44 44" fill="none" xmlns="http://www.w3.org/2000/svg">
<circle cx="22" cy="22" r="21.5" stroke="white" stroke-opacity="0.3"/>
<path d="M30.0918 17.9494C29.8972 17.2265 29.3273 16.6566 28.6045 16.462C27.284 16.1006 22.0018 16.1006 22.0018 16.1006C22.0018 16.1006 16.7197 16.1006 15.3992 16.4482C14.6903 16.6427 14.1065 17.2266 13.9119 17.9494C13.5645 19.2698 13.5645 22.0082 13.5645 22.0082C13.5645 22.0082 13.5645 24.7604 13.9119 26.067C14.1066 26.7898 14.6764 27.3598 15.3993 27.5544C16.7337 27.9158 22.0019 27.9158 22.0019 27.9158C22.0019 27.9158 27.284 27.9158 28.6045 27.5682C29.3274 27.3737 29.8972 26.8037 30.0919 26.0809C30.4394 24.7604 30.4394 22.0221 30.4394 22.0221C30.4394 22.0221 30.4533 19.2698 30.0918 17.9494Z" fill="#F4F4F5"/>
<path d="M20.3203 24.5382L24.7127 22.0084L20.3203 19.4785V24.5382Z" fill="black"/>
</svg>
